<?xml version="1.0" encoding="UTF-8" standalone="no"?>
<!DOCTYPE svg PUBLIC "-//W3C//DTD SVG 1.1//EN" "http://www.w3.org/Graphics/SVG/1.1/DTD/svg11.dtd">
<svg width="100%" height="100%" viewBox="0 0 1000 1000" version="1.1" xmlns="http://www.w3.org/2000/svg" xmlns:xlink="http://www.w3.org/1999/xlink" xml:space="preserve" style="fill-rule:evenodd;clip-rule:evenodd;stroke-linejoin:round;stroke-miterlimit:1.41421;">
    <g>
        <g>
            <path d="M634.8,467.7C596.1,456.6 556.7,447.9 517.2,443.2C446.5,431.5 321,421.3 202.6,464.6C66.3,514.6 10,498.5 10,498.5C10,498.5 269.2,862.9 522.7,908.9C656.4,940.3 800.1,913.9 913.7,811.4L960.7,786.1L932.5,745.8C888.1,590.3 774.7,507.9 634.8,467.7ZM683.5,689.1C677.5,752.8 622.4,785.2 558.6,779.2C494.9,773.2 446.7,731.1 452.7,667.4C458.7,603.7 504,675.9 567.8,681.8C631.5,687.8 689.5,625.3 683.5,689.1ZM551.2,586.1C549.3,606.1 531.6,620.7 511.7,618.9C491.7,617 477.1,599.3 478.9,579.3C480.8,559.3 498.5,544.7 518.4,546.6C538.4,548.4 553.1,566.1 551.2,586.1ZM517.8,841.1C394,805.7 304.6,702.8 267.4,572.9C341.3,506.3 428.9,495.2 519.3,508.1C461.1,527.5 416.8,579.7 410.7,644.7C402.4,732.5 467,810.5 554.8,818.7C642.6,827 720.6,762.4 728.8,674.6C732.9,630.8 718.9,589.4 693,557.9C778.4,598 841.5,661.9 870.5,763.5C770.3,854 641.6,876.6 517.8,841.1Z" style="fill:white;fill-rule:nonzero;"/>
            <path d="M625.4,232.7C458.4,166 252.2,203.7 106.4,86.9C72,59.4 22.8,107.9 57.6,135.7C176.3,230.8 318.5,237.5 463.2,259.7C629.8,285.3 821.9,376.7 923.8,514.1C950,549.4 1010,515.1 983.4,479.3C893.7,358.4 762.8,287.5 625.4,232.7Z" style="fill:white;fill-rule:nonzero;"/>
        </g>
    </g>
</svg>
