<?xml version="1.0" encoding="utf-8"?>
<!-- Svg Vector Icons : http://www.onlinewebfonts.com/icon -->
<!DOCTYPE svg PUBLIC "-//W3C//DTD SVG 1.1//EN" "http://www.w3.org/Graphics/SVG/1.1/DTD/svg11.dtd">
<svg version="1.1" xmlns="http://www.w3.org/2000/svg" xmlns:xlink="http://www.w3.org/1999/xlink" x="0px" y="0px" viewBox="0 0 1000 1000" enable-background="new 0 0 1000 1000" xml:space="preserve">
<metadata> Svg Vector Icons : http://www.onlinewebfonts.com/icon </metadata>
<g><g><g><path d="M634.8,467.7c-38.7-11.1-78.1-19.8-117.6-24.5c-70.7-11.7-196.2-21.9-314.6,21.4C66.3,514.6,10,498.5,10,498.5s259.2,364.4,512.7,410.4c133.7,31.4,277.4,5,391-97.5l47-25.3l-28.2-40.3C888.1,590.3,774.7,507.9,634.8,467.7z M683.5,689.1c-6,63.7-61.1,96.1-124.9,90.1c-63.7-6-111.9-48.1-105.9-111.8c6-63.7,51.3,8.5,115.1,14.4C631.5,687.8,689.5,625.3,683.5,689.1z M551.2,586.1c-1.9,20-19.6,34.6-39.5,32.8c-20-1.9-34.6-19.6-32.8-39.6c1.9-20,19.6-34.6,39.5-32.7C538.4,548.4,553.1,566.1,551.2,586.1z M517.8,841.1C394,805.7,304.6,702.8,267.4,572.9c73.9-66.6,161.5-77.7,251.9-64.8c-58.2,19.4-102.5,71.6-108.6,136.6c-8.3,87.8,56.3,165.8,144.1,174c87.8,8.3,165.8-56.3,174-144.1c4.1-43.8-9.9-85.2-35.8-116.7c85.4,40.1,148.5,104,177.5,205.6C770.3,854,641.6,876.6,517.8,841.1z"/><path d="M625.4,232.7c-167-66.7-373.2-29-519-145.8c-34.4-27.5-83.6,21-48.8,48.8c118.7,95.1,260.9,101.8,405.6,124c166.6,25.6,358.7,117,460.6,254.4c26.2,35.3,86.2,1,59.6-34.8C893.7,358.4,762.8,287.5,625.4,232.7z"/></g></g><g></g><g></g><g></g><g></g><g></g><g></g><g></g><g></g><g></g><g></g><g></g><g></g><g></g><g></g><g></g></g>
</svg>