<?xml version="1.0" encoding="UTF-8" standalone="no"?>
<!DOCTYPE svg PUBLIC "-//W3C//DTD SVG 1.1//EN" "http://www.w3.org/Graphics/SVG/1.1/DTD/svg11.dtd">
<svg width="100%" height="100%" viewBox="0 0 100 100" version="1.1" xmlns="http://www.w3.org/2000/svg" xmlns:xlink="http://www.w3.org/1999/xlink" xml:space="preserve" style="fill-rule:evenodd;clip-rule:evenodd;stroke-linecap:round;stroke-linejoin:round;stroke-miterlimit:1.41421;">
    <g transform="matrix(8.90711,-4.1762,4.1762,8.90711,-58.4913,8.7463)">
        <path d="M8.241,3.83C9.521,4.225 10.776,4.83 11.884,5.585C12.373,6.832 12.683,8.191 12.784,9.527C12.113,10.687 11.245,11.777 10.262,12.688C8.937,12.888 7.544,12.888 6.219,12.688C5.237,11.777 4.368,10.687 3.698,9.527C3.798,8.191 4.108,6.832 4.597,5.585C5.705,4.83 6.96,4.225 8.241,3.83Z" style="fill:none;stroke-width:0.56px;stroke:rgb(255,144,0);"/>
    </g>
    <path d="M79.139,43.572C79.139,42.692 78.425,41.977 77.544,41.977L22.142,41.977C21.262,41.977 20.547,42.692 20.547,43.572L20.547,46.763C20.547,47.643 21.262,48.358 22.142,48.358L77.544,48.358C78.425,48.358 79.139,47.643 79.139,46.763L79.139,43.572Z" style="fill:rgb(255,144,3);"/>
    <g transform="matrix(1.36625e-16,0.482301,-1,2.83277e-16,100.63,40.947)">
        <path d="M48.465,66.756L48.465,72.997L28.559,63.396L48.465,53.795L48.465,60.036L64.533,60.036L64.533,66.756L48.465,66.756Z" style="fill:rgb(255,144,3);"/>
    </g>
    <g transform="matrix(1.36625e-16,0.482301,-1,2.83277e-16,126.315,40.947)">
        <path d="M48.465,66.756L48.465,72.997L28.559,63.396L48.465,53.795L48.465,60.036L64.533,60.036L64.533,66.756L48.465,66.756Z" style="fill:rgb(255,144,3);"/>
    </g>
    <g transform="matrix(1.36625e-16,0.482301,-1,2.83277e-16,113.812,7.62279)">
        <path d="M48.465,66.756L48.465,72.997L28.559,63.396L48.465,53.795L48.465,60.036L64.533,60.036L64.533,66.756L48.465,66.756Z" style="fill:rgb(255,144,3);"/>
    </g>
</svg>
