<?xml version="1.0" encoding="UTF-8" standalone="no"?>
<!DOCTYPE svg PUBLIC "-//W3C//DTD SVG 1.1//EN" "http://www.w3.org/Graphics/SVG/1.1/DTD/svg11.dtd">
<svg width="100%" height="100%" viewBox="0 0 100 100" version="1.1" xmlns="http://www.w3.org/2000/svg" xmlns:xlink="http://www.w3.org/1999/xlink" xml:space="preserve" style="fill-rule:evenodd;clip-rule:evenodd;stroke-linecap:round;stroke-linejoin:round;stroke-miterlimit:1.41421;">
    <g transform="matrix(5.92251,-2.77684,2.77684,5.92251,-22.1147,22.1369)">
        <path d="M8.241,3.83C9.521,4.225 10.776,4.83 11.884,5.585C12.373,6.832 12.683,8.191 12.784,9.527C12.113,10.687 11.245,11.777 10.262,12.688C8.937,12.888 7.544,12.888 6.219,12.688C5.237,11.777 4.368,10.687 3.698,9.527C3.798,8.191 4.108,6.832 4.597,5.585C5.705,4.83 6.96,4.225 8.241,3.83Z" style="fill:none;stroke:white;stroke-width:0.46px;"/>
    </g>
    <g id="Layer1" transform="matrix(1.48199,0,0,1.48199,27.7083,26.4302)">
        <path d="M27.702,6.114C27.702,6.374 27.094,8.195 26.92,9.149C26.659,10.103 26.573,12.098 26.573,12.271C26.573,13.225 26.833,15.046 27.18,15.74C26.052,14.959 24.141,11.837 24.141,10.71L24.141,8.976C24.315,8.282 24.749,7.068 24.749,6.808C24.749,5.16 21.883,5.247 21.362,5.247C21.188,5.247 18.583,5.247 17.367,5.68C16.933,5.767 16.673,6.461 16.412,6.808C21.015,8.282 22.491,11.924 22.491,15.133C22.491,22.678 15.109,27.274 9.117,27.274C7.815,27.274 4.167,27.1 4.515,24.759L5.383,18.949L5.383,16.607C5.73,11.144 8.944,6.547 13.98,6.547C14.241,6.547 15.37,6.721 15.63,6.721C15.804,6.721 16.846,5.594 17.454,4.986C17.715,4.986 17.801,5.073 17.888,5.073C17.888,5.16 17.715,5.333 17.628,5.594C18.583,5.073 23.012,4.206 24.575,4.206C25.704,4.206 27.702,4.379 27.702,6.114Z" style="fill:white;fill-rule:nonzero;stroke:white;stroke-width:1px;stroke-linecap:butt;stroke-linejoin:miter;"/>
    </g>
</svg>
