<?xml version="1.0" encoding="UTF-8" standalone="no"?>
<!DOCTYPE svg PUBLIC "-//W3C//DTD SVG 1.1//EN" "http://www.w3.org/Graphics/SVG/1.1/DTD/svg11.dtd">
<svg width="100%" height="100%" viewBox="0 0 100 100" version="1.1" xmlns="http://www.w3.org/2000/svg" xmlns:xlink="http://www.w3.org/1999/xlink" xml:space="preserve" style="fill-rule:evenodd;clip-rule:evenodd;stroke-linecap:round;stroke-linejoin:round;stroke-miterlimit:1.41421;">
    <g transform="matrix(8.90711,-4.1762,4.1762,8.90711,-58.4913,8.7463)">
        <path d="M8.241,3.83C9.521,4.225 10.776,4.83 11.884,5.585C12.373,6.832 12.683,8.191 12.784,9.527C12.113,10.687 11.245,11.777 10.262,12.688C8.937,12.888 7.544,12.888 6.219,12.688C5.237,11.777 4.368,10.687 3.698,9.527C3.798,8.191 4.108,6.832 4.597,5.585C5.705,4.83 6.96,4.225 8.241,3.83Z" style="fill:none;stroke-width:0.56px;stroke:rgb(255,144,0);"/>
    </g>
    <g transform="matrix(1.10417,0,0,1.10417,-3.98469,-6.33571)">
        <g transform="matrix(0.346225,0,0,0.346225,16.1084,16.4136)">
            <path d="M8.504,128.215L14.304,128.215L14.304,105.238L23.362,125.271C24.388,127.679 25.861,128.572 28.716,128.572C31.572,128.572 32.955,127.679 34.026,125.271L43.039,105.238L43.039,128.215L48.884,128.215L48.884,105.238C48.884,103.008 47.991,101.935 46.117,101.355C41.7,100.017 38.755,101.177 37.417,104.166L28.539,123.977L19.972,104.166C18.678,101.178 15.688,100.018 11.227,101.355C9.398,101.935 8.505,103.007 8.505,105.238L8.505,128.215L8.504,128.215Z" style="fill:rgb(255,144,3);"/>
        </g>
        <g transform="matrix(0.346225,0,0,0.346225,16.1084,16.4136)">
            <path d="M53.702,109.521L59.547,109.521L59.547,122.148C59.503,122.861 59.77,124.468 62.938,124.511C64.589,124.556 75.52,124.511 75.609,124.511L75.609,109.431L81.454,109.431C81.454,109.431 81.454,129.999 81.454,130.089C81.454,135.175 75.163,136.29 72.218,136.335L53.835,136.335L53.835,132.454C53.879,132.454 72.217,132.454 72.262,132.454C76.01,132.052 75.564,130.179 75.564,129.554L75.564,128.036L63.205,128.036C57.449,127.991 53.746,125.448 53.702,122.548C53.702,122.281 53.835,109.609 53.702,109.521Z" style="fill:rgb(255,144,3);"/>
        </g>
        <g transform="matrix(0.346225,0,0,0.346225,16.1084,16.4136)">
            <path d="M179.076,94.886C175.508,94.797 172.74,95.154 170.42,96.136C169.752,96.405 168.68,96.405 168.592,97.252C168.949,97.607 168.992,98.188 169.305,98.68C169.84,99.573 170.778,100.776 171.625,101.401C172.563,102.116 173.5,102.829 174.48,103.454C176.22,104.524 178.183,105.149 179.878,106.22C180.86,106.845 181.841,107.648 182.823,108.318C183.313,108.675 183.626,109.256 184.251,109.478C184.251,109.433 184.251,109.388 184.251,109.343C183.939,108.943 183.849,108.363 183.538,107.915C183.091,107.47 182.645,107.067 182.198,106.622C180.905,104.882 179.298,103.364 177.557,102.116C176.129,101.134 173.006,99.796 172.426,98.145C172.426,98.145 172.381,98.1 172.338,98.055C173.318,97.965 174.479,97.608 175.416,97.34C176.934,96.94 178.316,97.028 179.877,96.627C180.592,96.448 181.305,96.225 182.02,96.002C182.02,95.868 182.02,95.734 182.02,95.601C181.217,94.798 180.637,93.727 179.79,92.969C177.515,91.006 175.015,89.087 172.427,87.481C171.044,86.589 169.259,86.008 167.788,85.251C167.251,84.983 166.36,84.849 166.048,84.403C165.243,83.422 164.798,82.128 164.218,80.967C162.925,78.513 161.675,75.792 160.56,73.204C159.757,71.464 159.265,69.724 158.285,68.118C153.689,60.533 148.691,55.937 141.017,51.431C139.367,50.494 137.404,50.092 135.306,49.602C134.191,49.557 133.076,49.468 131.96,49.423C131.245,49.111 130.532,48.263 129.907,47.861C127.364,46.255 120.805,42.775 118.93,47.37C117.725,50.27 120.715,53.125 121.741,54.598C122.501,55.624 123.481,56.784 124.018,57.944C124.329,58.702 124.418,59.506 124.731,60.309C125.444,62.272 126.114,64.458 127.051,66.288C127.541,67.225 128.076,68.207 128.701,69.055C129.058,69.546 129.683,69.769 129.816,70.572C129.191,71.465 129.148,72.803 128.791,73.919C127.184,78.961 127.809,85.207 130.084,88.91C130.799,90.025 132.494,92.479 134.77,91.542C136.778,90.739 136.331,88.196 136.911,85.965C137.046,85.43 136.956,85.073 137.223,84.716C137.223,84.76 137.223,84.805 137.223,84.805C137.848,86.054 138.473,87.259 139.053,88.508C140.436,90.694 142.846,92.97 144.854,94.487C145.924,95.29 146.772,96.674 148.11,97.164C148.11,97.119 148.11,97.074 148.11,97.029C148.065,97.029 148.065,97.029 148.022,97.029C147.754,96.629 147.352,96.45 146.995,96.137C146.192,95.334 145.3,94.352 144.675,93.46C142.802,90.962 141.152,88.195 139.679,85.34C138.964,83.957 138.339,82.44 137.761,81.057C137.491,80.521 137.491,79.718 137.046,79.451C136.376,80.432 135.396,81.281 134.903,82.485C134.055,84.403 133.967,86.768 133.655,89.222C133.475,89.267 133.565,89.222 133.475,89.311C132.049,88.955 131.557,87.482 131.022,86.233C129.684,83.065 129.46,77.979 130.62,74.32C130.932,73.383 132.272,70.438 131.737,69.546C131.467,68.698 130.577,68.208 130.085,67.538C129.505,66.69 128.882,65.62 128.48,64.683C127.41,62.184 126.875,59.418 125.714,56.919C125.177,55.759 124.241,54.554 123.482,53.484C122.634,52.279 121.699,51.431 121.029,50.004C120.806,49.513 120.494,48.71 120.851,48.175C120.939,47.818 121.119,47.684 121.474,47.595C122.054,47.104 123.706,47.729 124.286,47.996C125.936,48.665 127.319,49.29 128.702,50.226C129.327,50.672 129.997,51.52 130.8,51.744C131.112,51.744 131.425,51.744 131.738,51.744C133.166,52.056 134.771,51.833 136.109,52.234C138.474,52.993 140.615,54.108 142.535,55.313C148.379,59.016 153.199,64.281 156.455,70.572C156.99,71.598 157.213,72.535 157.705,73.606C158.643,75.793 159.803,78.023 160.738,80.165C161.676,82.262 162.568,84.404 163.906,86.144C164.576,87.081 167.252,87.571 168.457,88.062C169.35,88.463 170.732,88.821 171.537,89.311C173.053,90.248 174.57,91.319 175.998,92.345C176.711,92.879 178.943,93.994 179.076,94.886Z" style="fill:rgb(255,144,3);"/>
        </g>
        <g transform="matrix(0.346225,0,0,0.346225,16.1084,16.4136)">
            <path d="M85.916,128.215L102.692,128.215C104.655,128.215 106.53,127.815 108.046,127.1C110.589,125.94 111.794,124.379 111.794,122.327L111.794,118.044C111.794,116.394 110.411,114.831 107.646,113.761C106.218,113.226 104.433,112.913 102.693,112.913L95.644,112.913C93.279,112.913 92.164,112.198 91.851,110.638C91.807,110.46 91.807,110.281 91.807,110.103L91.807,107.47C91.807,107.335 91.807,107.158 91.851,106.98C92.163,105.775 92.788,105.462 94.841,105.24L112.018,105.24L112.018,101.357L95.687,101.357C93.322,101.357 92.073,101.492 90.958,101.849C87.522,102.919 86.005,104.615 86.005,107.603L86.005,110.996C86.005,113.627 88.95,115.859 93.947,116.394C94.482,116.439 95.062,116.439 95.642,116.439L101.666,116.439C101.889,116.439 102.111,116.439 102.289,116.484C104.119,116.662 104.922,116.974 105.457,117.642C105.814,117.999 105.904,118.312 105.904,118.714L105.904,122.105C105.904,122.505 105.636,123.043 105.101,123.488C104.564,123.933 103.716,124.246 102.601,124.291C102.378,124.291 102.246,124.336 102.021,124.336L85.916,124.336L85.916,128.215Z" style="fill:rgb(255,144,3);"/>
        </g>
        <g transform="matrix(0.346225,0,0,0.346225,16.1084,16.4136)">
            <path d="M148.111,121.479C148.111,125.45 151.101,127.68 157.08,128.127C157.66,128.172 158.195,128.215 158.775,128.215L173.945,128.215L173.945,124.334L158.642,124.334C155.249,124.334 153.956,123.486 153.956,121.434L153.956,101.356L148.11,101.356L148.11,121.479L148.111,121.479Z" style="fill:rgb(255,144,3);"/>
        </g>
        <g transform="matrix(0.346225,0,0,0.346225,16.1084,16.4136)">
            <path d="M115.496,121.656L115.496,107.826C115.496,104.301 117.994,102.158 122.859,101.49C123.394,101.445 123.929,101.4 124.42,101.4L135.484,101.4C136.064,101.4 136.556,101.445 137.136,101.49C141.999,102.158 144.452,104.301 144.452,107.826L144.452,121.656C144.452,124.511 143.427,126.029 141.016,127.056L146.727,132.23L139.991,132.23L135.35,128.037L130.664,128.305L124.418,128.305C123.393,128.305 122.232,128.172 121.027,127.86C117.326,126.832 115.496,124.869 115.496,121.656ZM121.787,121.346C121.787,121.524 121.877,121.701 121.922,121.926C122.234,123.531 123.75,124.424 126.07,124.424L131.336,124.424L126.518,120.051L133.254,120.051L137.492,123.889C138.297,123.442 138.787,122.817 138.965,122.014C139.01,121.836 139.01,121.614 139.01,121.434L139.01,108.182C139.01,108.004 139.01,107.827 138.965,107.647C138.653,106.131 137.137,105.284 134.861,105.284L126.07,105.284C123.482,105.284 121.787,106.399 121.787,108.182L121.787,121.346Z" style="fill:rgb(255,144,3);"/>
        </g>
        <g transform="matrix(0.346225,0,0,0.346225,16.1084,16.4136)">
            <path d="M176.623,128.26L177.471,128.26L177.471,125.004L178.586,125.004L178.586,124.334L175.463,124.334L175.463,125.004L176.623,125.004L176.623,128.26ZM183.092,128.26L183.895,128.26L183.895,124.334L182.692,124.334L181.71,127.012L180.64,124.334L179.48,124.334L179.48,128.26L180.238,128.26L180.238,125.272L180.283,125.272L181.398,128.26L181.978,128.26L183.093,125.272L183.093,128.26L183.092,128.26Z" style="fill:rgb(255,144,3);"/>
        </g>
    </g>
</svg>
