<?xml version="1.0" encoding="UTF-8" standalone="no"?>
<!DOCTYPE svg PUBLIC "-//W3C//DTD SVG 1.1//EN" "http://www.w3.org/Graphics/SVG/1.1/DTD/svg11.dtd">
<svg width="100%" height="100%" viewBox="0 0 100 100" version="1.1" xmlns="http://www.w3.org/2000/svg" xmlns:xlink="http://www.w3.org/1999/xlink" xml:space="preserve" style="fill-rule:evenodd;clip-rule:evenodd;stroke-linecap:round;stroke-linejoin:round;stroke-miterlimit:1.41421;">
    <g transform="matrix(8.90711,-4.1762,4.1762,8.90711,-58.4913,8.7463)">
        <path d="M8.241,3.83C9.521,4.225 10.776,4.83 11.884,5.585C12.373,6.832 12.683,8.191 12.784,9.527C12.113,10.687 11.245,11.777 10.262,12.688C8.937,12.888 7.544,12.888 6.219,12.688C5.237,11.777 4.368,10.687 3.698,9.527C3.798,8.191 4.108,6.832 4.597,5.585C5.705,4.83 6.96,4.225 8.241,3.83Z" style="fill:none;stroke-width:0.56px;stroke:rgb(255,144,0);"/>
    </g>
    <g transform="matrix(0.135538,0,0,0.135538,15.1775,35.1668)">
        <g transform="matrix(1,0,0,1,430,51)">
            <path d="M41.051,0.611C39.806,0.611 38.596,0.868 37.525,1.474L3.637,21.045C1.444,22.308 0.111,24.694 0.111,27.233L0.111,66.302C0.111,68.839 1.444,71.223 3.637,72.489L12.487,77.598C16.786,79.717 18.372,79.684 20.329,79.684C26.695,79.684 30.33,75.821 30.33,69.108L30.33,30.542C30.33,29.997 29.858,29.607 29.323,29.607L25.078,29.607C24.534,29.607 24.071,29.997 24.071,30.542L24.071,69.108C24.071,72.083 20.971,75.076 15.94,72.561L6.731,67.165C6.405,66.988 6.155,66.675 6.155,66.302L6.155,27.233C6.155,26.862 6.402,26.485 6.731,26.297L40.547,6.799C40.864,6.617 41.241,6.617 41.554,6.799L75.371,26.297C75.693,26.491 75.947,26.85 75.947,27.233L75.947,66.302C75.947,66.675 75.759,67.057 75.443,67.237L41.554,86.735C41.264,86.908 40.864,86.908 40.547,86.735L31.841,81.555C31.582,81.403 31.228,81.415 30.978,81.555C28.575,82.917 28.123,83.076 25.869,83.857C25.314,84.051 24.471,84.352 26.157,85.296L37.525,91.988C38.607,92.614 39.813,92.923 41.051,92.923C42.306,92.923 43.494,92.614 44.576,91.988L78.465,72.489C80.658,71.214 81.99,68.839 81.99,66.302L81.99,27.233C81.99,24.694 80.658,22.313 78.465,21.045L44.576,1.474C43.514,0.868 42.295,0.611 41.051,0.611Z" style="fill:rgb(255,144,3);fill-rule:nonzero;"/>
            <path d="M50.116,28.528C40.467,28.528 34.719,32.635 34.719,39.465C34.719,46.873 40.423,48.909 49.685,49.825C60.765,50.91 61.628,52.537 61.628,54.718C61.628,58.501 58.612,60.114 51.484,60.114C42.527,60.114 40.559,57.878 39.9,53.423C39.822,52.945 39.453,52.559 38.964,52.559L34.575,52.559C34.034,52.559 33.568,53.025 33.568,53.567C33.568,59.27 36.67,66.014 51.484,66.014C62.207,66.014 68.392,61.805 68.392,54.43C68.392,47.119 63.396,45.157 52.994,43.782C42.484,42.391 41.482,41.71 41.482,39.249C41.482,37.217 42.331,34.5 50.116,34.5C57.07,34.5 59.64,35.999 60.693,40.688C60.785,41.129 61.174,41.479 61.628,41.479L66.017,41.479C66.288,41.479 66.55,41.313 66.737,41.119C66.921,40.912 67.051,40.679 67.025,40.4C66.346,32.326 60.961,28.528 50.116,28.528Z" style="fill:rgb(255,144,3);fill-rule:nonzero;"/>
        </g>
        <g>
            <path d="M271.821,0.383C271.449,0.387 271.073,0.476 270.742,0.67C270.079,1.059 269.662,1.773 269.662,2.541L269.662,57.583C269.662,58.124 269.411,58.607 268.943,58.878C268.474,59.15 267.902,59.15 267.432,58.878L258.438,53.698C257.098,52.925 255.462,52.926 254.121,53.698L218.218,74.419C216.876,75.194 216.06,76.683 216.06,78.233L216.06,119.676C216.06,121.224 216.877,122.642 218.218,123.417L254.121,144.139C255.464,144.913 257.096,144.913 258.438,144.139L294.341,123.417C295.682,122.642 296.5,121.224 296.5,119.676L296.5,16.356C296.5,14.784 295.642,13.309 294.269,12.542L272.9,0.598C272.565,0.411 272.193,0.379 271.821,0.383L271.821,0.383ZM40.861,52.115C40.177,52.142 39.533,52.262 38.919,52.618L3.015,73.34C1.678,74.113 0.857,75.522 0.857,77.081L0.929,132.699C0.929,133.472 1.328,134.191 2.008,134.57C2.675,134.969 3.502,134.969 4.167,134.57L25.464,122.338C26.813,121.536 27.694,120.142 27.694,118.596L27.694,92.623C27.694,91.073 28.509,89.651 29.853,88.881L38.918,83.629C39.595,83.238 40.321,83.053 41.077,83.053C41.817,83.053 42.578,83.238 43.235,83.629L52.301,88.881C53.645,89.651 54.46,91.073 54.46,92.623L54.46,118.596C54.46,120.142 55.35,121.545 56.69,122.338L77.987,134.57C78.656,134.969 79.482,134.969 80.146,134.57C80.807,134.191 81.225,133.472 81.225,132.699L81.297,77.081C81.297,75.522 80.485,74.113 79.138,73.34L43.235,52.618C42.628,52.262 41.982,52.143 41.293,52.115L40.861,52.115L40.861,52.115ZM363.485,52.618C362.735,52.617 362,52.807 361.327,53.194L325.424,73.916C324.083,74.69 323.265,76.108 323.265,77.657L323.265,119.1C323.265,120.659 324.143,122.071 325.496,122.842L361.111,143.132C362.426,143.883 364.032,143.939 365.356,143.203L386.941,131.187C387.626,130.807 388.089,130.098 388.092,129.316C388.097,128.535 387.689,127.835 387.013,127.446L350.894,106.724C350.218,106.338 349.743,105.557 349.743,104.781L349.743,91.83C349.743,91.056 350.224,90.346 350.894,89.96L362.118,83.484C362.786,83.098 363.606,83.098 364.277,83.484L375.501,89.96C376.172,90.346 376.58,91.056 376.58,91.83L376.58,102.047C376.58,102.823 376.989,103.531 377.66,103.918C378.333,104.306 379.147,104.307 379.818,103.918L401.331,91.399C402.667,90.623 403.49,89.202 403.49,87.657L403.49,77.656C403.49,76.112 402.669,74.691 401.331,73.915L365.644,53.193C364.972,52.804 364.235,52.619 363.485,52.618L363.485,52.618ZM256.136,83.557C256.323,83.557 256.543,83.603 256.711,83.7L269.015,90.823C269.349,91.016 269.591,91.372 269.591,91.758L269.591,106.004C269.591,106.391 269.351,106.747 269.015,106.94L256.711,114.063C256.376,114.254 255.967,114.254 255.632,114.063L243.329,106.94C242.994,106.746 242.753,106.391 242.753,106.004L242.753,91.758C242.753,91.372 242.995,91.017 243.329,90.823L255.632,83.701C255.8,83.604 255.949,83.558 256.136,83.558L256.136,83.557Z" style="fill:rgb(255,144,3);fill-rule:nonzero;"/>
            <path d="M148.714,52.402C147.966,52.402 147.226,52.591 146.556,52.978L110.653,73.628C109.31,74.401 108.494,75.893 108.494,77.441L108.494,118.884C108.494,120.434 109.311,121.85 110.653,122.626L146.556,143.347C147.898,144.123 149.531,144.123 150.873,143.347L186.776,122.626C188.116,121.85 188.934,120.434 188.934,118.884L188.934,77.441C188.934,75.891 188.118,74.401 186.776,73.628L150.873,52.978C150.203,52.591 149.463,52.402 148.714,52.402Z" style="fill:rgb(255,144,3);fill-rule:nonzero;"/>
            <path d="M363.413,89.385C363.27,89.385 363.111,89.385 362.982,89.457L356.075,93.486C355.815,93.633 355.643,93.908 355.643,94.205L355.643,102.12C355.643,102.418 355.815,102.691 356.075,102.839L362.982,106.797C363.241,106.946 363.517,106.946 363.773,106.797L370.68,102.839C370.937,102.692 371.112,102.418 371.112,102.12L371.112,94.205C371.112,93.908 370.937,93.634 370.68,93.486L363.773,89.457C363.645,89.381 363.557,89.385 363.413,89.385Z" style="fill:rgb(255,144,3);fill-rule:nonzero;"/>
        </g>
    </g>
</svg>
