<?xml version="1.0" encoding="UTF-8" standalone="no"?>
<!DOCTYPE svg PUBLIC "-//W3C//DTD SVG 1.1//EN" "http://www.w3.org/Graphics/SVG/1.1/DTD/svg11.dtd">
<svg width="100%" height="100%" viewBox="0 0 100 100" version="1.1" xmlns="http://www.w3.org/2000/svg" xmlns:xlink="http://www.w3.org/1999/xlink" xml:space="preserve" style="fill-rule:evenodd;clip-rule:evenodd;stroke-linecap:round;stroke-linejoin:round;stroke-miterlimit:1.41421;">
    <g transform="matrix(8.90711,-4.1762,4.1762,8.90711,-58.4913,8.7463)">
        <path d="M8.241,3.83C9.521,4.225 10.776,4.83 11.884,5.585C12.373,6.832 12.683,8.191 12.784,9.527C12.113,10.687 11.245,11.777 10.262,12.688C8.937,12.888 7.544,12.888 6.219,12.688C5.237,11.777 4.368,10.687 3.698,9.527C3.798,8.191 4.108,6.832 4.597,5.585C5.705,4.83 6.96,4.225 8.241,3.83Z" style="fill:none;stroke-width:0.56px;stroke:rgb(255,144,0);"/>
    </g>
    <g transform="matrix(0.250788,0,0,0.250788,18.4968,33.8185)">
        <ellipse cx="128" cy="66.63" rx="128" ry="66.63" style="fill:rgb(255,144,3);stroke-width:3.99px;stroke-linecap:butt;stroke:rgb(255,144,3);"/>
        <path d="M35.945,106.082L49.973,35.068L82.411,35.068C96.438,35.945 103.452,42.959 103.452,55.233C103.452,76.274 86.795,88.548 71.89,87.671L56.11,87.671L52.603,106.082L35.945,106.082ZM59.616,74.521L64,48.219L75.397,48.219C81.534,48.219 85.918,50.849 85.918,56.11C85.041,71.014 78.027,73.644 70.137,74.521L59.616,74.521Z" style="fill:rgb(91,55,11);"/>
        <path d="M100.192,87.671L114.219,16.658L130.877,16.658L127.37,35.068L143.151,35.068C157.178,35.945 162.438,42.959 160.685,51.726L154.548,87.671L137.014,87.671L143.151,55.233C144.027,50.849 144.027,48.219 137.89,48.219L124.74,48.219L116.849,87.671L100.192,87.671Z" style="fill:rgb(91,55,11);"/>
        <path d="M153.425,106.082L167.452,35.068L199.89,35.068C213.918,35.945 220.932,42.959 220.932,55.233C220.932,76.274 204.274,88.548 189.37,87.671L173.589,87.671L170.082,106.082L153.425,106.082ZM177.096,74.521L181.479,48.219L192.877,48.219C199.014,48.219 203.397,50.849 203.397,56.11C202.521,71.014 195.507,73.644 187.616,74.521L177.096,74.521Z" style="fill:rgb(91,55,11);"/>
    </g>
</svg>
