<?xml version="1.0" encoding="UTF-8" standalone="no"?>
<!DOCTYPE svg PUBLIC "-//W3C//DTD SVG 1.1//EN" "http://www.w3.org/Graphics/SVG/1.1/DTD/svg11.dtd">
<svg width="100%" height="100%" viewBox="0 0 100 100" version="1.1" xmlns="http://www.w3.org/2000/svg" xmlns:xlink="http://www.w3.org/1999/xlink" xml:space="preserve" style="fill-rule:evenodd;clip-rule:evenodd;stroke-linecap:round;stroke-linejoin:round;stroke-miterlimit:1.41421;">
    <g transform="matrix(8.90711,-4.1762,4.1762,8.90711,-58.4913,8.7463)">
        <path d="M8.241,3.83C9.521,4.225 10.776,4.83 11.884,5.585C12.373,6.832 12.683,8.191 12.784,9.527C12.113,10.687 11.245,11.777 10.262,12.688C8.937,12.888 7.544,12.888 6.219,12.688C5.237,11.777 4.368,10.687 3.698,9.527C3.798,8.191 4.108,6.832 4.597,5.585C5.705,4.83 6.96,4.225 8.241,3.83Z" style="fill:none;stroke-width:0.56px;stroke:rgb(255,144,0);"/>
    </g>
    <g transform="matrix(0.212862,0,0,0.212862,22.845,22.5082)">
        <path d="M126.916,0.072C62.084,0.072 66.132,28.187 66.132,28.187L66.204,57.315L128.072,57.315L128.072,66.06L41.631,66.06C41.631,66.06 0.145,61.355 0.145,126.771C0.145,192.188 36.355,189.868 36.355,189.868L57.965,189.868L57.965,159.512C57.965,159.512 56.8,123.302 93.597,123.302L154.959,123.302C154.959,123.302 189.434,123.859 189.434,89.983L189.434,33.97C189.434,33.97 194.669,0.072 126.916,0.072ZM92.802,19.659C98.957,19.659 103.932,24.634 103.932,30.789C103.932,36.945 98.957,41.92 92.802,41.92C86.646,41.92 81.671,36.945 81.671,30.789C81.671,24.634 86.646,19.659 92.802,19.659Z" style="fill:rgb(255,144,3);fill-rule:nonzero;"/>
    </g>
    <g transform="matrix(0.212862,0,0,0.212862,22.845,22.5082)">
        <path d="M128.757,254.126C193.589,254.126 189.541,226.011 189.541,226.011L189.469,196.884L127.601,196.884L127.601,188.139L214.042,188.139C214.042,188.139 255.528,192.844 255.528,127.427C255.528,62.011 219.318,64.331 219.318,64.331L197.708,64.331L197.708,94.686C197.708,94.686 198.873,130.896 162.076,130.896L100.714,130.896C100.714,130.896 66.239,130.339 66.239,164.215L66.239,220.229C66.239,220.229 61.004,254.126 128.757,254.126ZM162.871,234.54C156.716,234.54 151.741,229.565 151.741,223.409C151.741,217.254 156.716,212.279 162.871,212.279C169.027,212.279 174.002,217.254 174.002,223.409C174.002,229.565 169.027,234.54 162.871,234.54Z" style="fill:rgb(255,144,3);fill-rule:nonzero;"/>
    </g>
</svg>
