<?xml version="1.0" encoding="UTF-8" standalone="no"?>
<!DOCTYPE svg PUBLIC "-//W3C//DTD SVG 1.1//EN" "http://www.w3.org/Graphics/SVG/1.1/DTD/svg11.dtd">
<svg width="100%" height="100%" viewBox="0 0 100 100" version="1.1" xmlns="http://www.w3.org/2000/svg" xmlns:xlink="http://www.w3.org/1999/xlink" xml:space="preserve" style="fill-rule:evenodd;clip-rule:evenodd;stroke-linecap:round;stroke-linejoin:round;stroke-miterlimit:1.41421;">
    <g transform="matrix(8.90711,-4.1762,4.1762,8.90711,-58.4913,8.7463)">
        <path d="M8.241,3.83C9.521,4.225 10.776,4.83 11.884,5.585C12.373,6.832 12.683,8.191 12.784,9.527C12.113,10.687 11.245,11.777 10.262,12.688C8.937,12.888 7.544,12.888 6.219,12.688C5.237,11.777 4.368,10.687 3.698,9.527C3.798,8.191 4.108,6.832 4.597,5.585C5.705,4.83 6.96,4.225 8.241,3.83Z" style="fill:none;stroke-width:0.56px;stroke:rgb(255,144,0);"/>
    </g>
    <g transform="matrix(0.237171,0,0,0.237171,19.534,24.5965)">
        <path d="M245.97,168.943C232.308,176.064 161.536,205.163 146.469,213.018C131.402,220.874 123.032,220.798 111.129,215.108C99.227,209.418 23.913,178.996 10.346,172.511C3.565,169.27 0,166.535 0,163.951L0,138.075C0,138.075 98.049,116.73 113.879,111.051C129.707,105.372 135.199,105.167 148.67,110.101C162.141,115.037 242.687,129.569 256,134.445C256,134.445 255.994,157.556 255.994,159.955C255.996,162.513 252.924,165.319 245.97,168.943" style="fill:rgb(165,99,24);fill-rule:nonzero;"/>
        <path d="M245.965,143.22C232.304,150.338 161.534,179.438 146.467,187.292C131.401,195.149 123.031,195.072 111.129,189.382C99.226,183.696 23.915,153.269 10.349,146.788C-3.217,140.303 -3.502,135.84 9.825,130.622C23.151,125.402 98.049,96.017 113.88,90.338C129.708,84.661 135.199,84.454 148.669,89.39C162.14,94.324 232.488,122.325 245.8,127.2C259.115,132.081 259.626,136.099 245.965,143.22" style="fill:rgb(234,133,18);fill-rule:nonzero;"/>
        <path d="M245.97,127.074C232.308,134.196 161.536,163.294 146.469,171.152C131.402,179.005 123.032,178.929 111.129,173.239C99.226,167.552 23.913,137.127 10.346,130.642C3.565,127.401 0,124.669 0,122.085L0,96.206C0,96.206 98.049,74.862 113.879,69.183C129.707,63.504 135.199,63.298 148.67,68.233C162.141,73.168 242.687,87.697 256,92.574C256,92.574 255.994,115.685 255.994,118.087C255.996,120.644 252.924,123.45 245.97,127.074" style="fill:rgb(165,99,24);fill-rule:nonzero;"/>
        <path d="M245.965,101.351C232.304,108.471 161.534,137.569 146.467,145.426C131.401,153.28 123.031,153.203 111.129,147.513C99.226,141.827 23.915,111.401 10.349,104.919C-3.217,98.436 -3.502,93.972 9.825,88.752C23.151,83.535 98.049,54.148 113.88,48.47C129.708,42.792 135.199,42.586 148.669,47.521C162.14,52.455 232.488,80.454 245.8,85.331C259.115,90.21 259.626,94.23 245.965,101.35L245.965,101.351" style="fill:rgb(234,133,18);fill-rule:nonzero;"/>
        <path d="M245.97,83.653C232.308,90.774 161.536,119.874 146.469,127.731C131.402,135.585 123.032,135.508 111.129,129.818C99.226,124.131 23.913,93.705 10.346,87.223C3.565,83.981 0,81.247 0,78.665L0,52.786C0,52.786 98.049,31.442 113.879,25.764C129.707,20.085 135.199,19.88 148.67,24.814C162.141,29.749 242.687,44.278 256,49.155C256,49.155 255.994,72.266 255.994,74.667C255.996,77.222 252.924,80.028 245.97,83.653" style="fill:rgb(165,99,24);fill-rule:nonzero;"/>
        <path d="M245.965,57.929C232.304,65.049 161.534,94.149 146.467,102.004C131.401,109.858 123.031,109.781 111.129,104.093C99.227,98.405 23.915,67.981 10.349,61.498C-3.217,55.015 -3.502,50.55 9.825,45.331C23.151,40.113 98.049,10.729 113.88,5.049C129.708,-0.63 135.199,-0.834 148.669,4.101C162.14,9.036 232.488,37.035 245.8,41.912C259.115,46.788 259.626,50.809 245.965,57.929" style="fill:rgb(234,133,18);fill-rule:nonzero;"/>
        <path d="M159.283,32.757L137.274,35.042L132.346,46.898L124.388,33.668L98.973,31.384L117.937,24.545L112.247,14.047L130.002,20.991L146.74,15.511L142.216,26.366L159.283,32.757" style="fill:white;fill-rule:nonzero;"/>
        <path d="M131.032,90.275L89.955,73.238L148.816,64.203L131.032,90.275" style="fill:white;fill-rule:nonzero;"/>
        <path d="M74.082,39.347C91.457,39.347 105.542,44.807 105.542,51.541C105.542,58.277 91.457,63.736 74.082,63.736C56.707,63.736 42.621,58.277 42.621,51.541C42.621,44.807 56.707,39.347 74.082,39.347" style="fill:white;fill-rule:nonzero;"/>
        <path d="M185.295,35.998L220.131,49.764L185.325,63.517L185.295,35.998" style="fill:rgb(125,79,22);fill-rule:nonzero;"/>
        <path d="M146.755,51.243L185.295,35.998L185.325,63.517L181.546,64.995L146.755,51.243" style="fill:rgb(165,99,24);fill-rule:nonzero;"/>
    </g>
</svg>
