<?xml version="1.0" encoding="UTF-8" standalone="no"?>
<!DOCTYPE svg PUBLIC "-//W3C//DTD SVG 1.1//EN" "http://www.w3.org/Graphics/SVG/1.1/DTD/svg11.dtd">
<svg width="100%" height="100%" viewBox="0 0 100 100" version="1.1" xmlns="http://www.w3.org/2000/svg" xmlns:xlink="http://www.w3.org/1999/xlink" xml:space="preserve" style="fill-rule:evenodd;clip-rule:evenodd;stroke-linecap:round;stroke-linejoin:round;stroke-miterlimit:1.41421;">
    <g transform="matrix(8.90711,-4.1762,4.1762,8.90711,-58.4913,8.7463)">
        <path d="M8.241,3.83C9.521,4.225 10.776,4.83 11.884,5.585C12.373,6.832 12.683,8.191 12.784,9.527C12.113,10.687 11.245,11.777 10.262,12.688C8.937,12.888 7.544,12.888 6.219,12.688C5.237,11.777 4.368,10.687 3.698,9.527C3.798,8.191 4.108,6.832 4.597,5.585C5.705,4.83 6.96,4.225 8.241,3.83Z" style="fill:none;stroke-width:0.56px;stroke:rgb(255,144,0);"/>
    </g>
    <g transform="matrix(1,0,0,1,-2,2)">
        <g id="circle69" transform="matrix(0.219776,0,0,0.219776,14.2689,14.4148)">
            <ellipse cx="40.158" cy="150.022" rx="28.347" ry="26.52" style="fill:rgb(255,144,3);"/>
        </g>
        <g id="circle71" transform="matrix(0.219776,0,0,0.219776,14.2689,14.4148)">
            <ellipse cx="238.479" cy="260.747" rx="28.347" ry="26.521" style="fill:rgb(255,144,3);"/>
        </g>
        <g id="path73" transform="matrix(0.219776,0,0,0.219776,14.2689,14.4148)">
            <path d="M172.369,83.824C206.808,83.824 235.383,108.559 240.114,140.627L287.5,140.627C285.348,115.429 274.547,91.943 256.49,73.42C244.925,79.117 230.705,79.226 218.625,72.482C206.536,65.73 199.521,53.755 198.849,41.206C190.268,39.27 181.401,38.268 172.37,38.268C155.08,38.268 138.372,41.919 123.175,48.841L146.898,88.586C154.775,85.519 163.373,83.824 172.369,83.824Z" style="fill:rgb(255,144,3);fill-rule:nonzero;"/>
        </g>
        <g id="path75" transform="matrix(0.219776,0,0,0.219776,14.2689,14.4148)">
            <path d="M240.117,159.387C235.397,191.467 206.818,216.217 172.369,216.217C163.367,216.217 154.767,214.523 146.889,211.449L123.162,251.197C138.355,258.123 155.07,261.776 172.367,261.776C181.402,261.776 190.281,260.767 198.867,258.832C199.527,246.269 206.545,234.273 218.642,227.518C230.726,220.768 244.952,220.877 256.519,226.586C274.562,208.061 285.351,184.576 287.497,159.387L240.117,159.387L240.117,159.387Z" style="fill:rgb(255,144,3);fill-rule:nonzero;"/>
        </g>
        <g id="path77" transform="matrix(0.219776,0,0,0.219776,14.2689,14.4148)">
            <path d="M103.934,150.021C103.934,128.931 114.183,110.115 130.113,97.985L106.396,58.246C100.834,62.005 95.571,66.26 90.669,70.998C76.943,84.274 67.1,100.305 61.683,117.8C72.596,124.638 79.822,136.507 79.822,150.021C79.822,163.533 72.595,175.405 61.682,182.24C67.099,199.736 76.942,215.765 90.668,229.043C95.566,233.781 100.823,238.029 106.382,241.791L130.103,202.049C114.177,189.92 103.934,171.104 103.934,150.021Z" style="fill:rgb(255,144,3);fill-rule:nonzero;"/>
        </g>
        <g id="circle79" transform="matrix(0.219776,0,0,0.219776,14.2689,14.4148)">
            <ellipse cx="238.456" cy="39.252" rx="28.346" ry="26.522" style="fill:rgb(255,144,3);"/>
        </g>
    </g>
</svg>
